<svg xmlns="http://www.w3.org/2000/svg" viewBox="-12 -10 120 100" width="100" height="84" shape-rendering="geometricPrecision">
  
  <g transform="translate(80 8)">
    <path d="M 12 22 C 12 22, 2 15, 2 8 C 2 4, 5 2, 8 2 C 10 2, 12 4, 12 6 C 12 4, 14 2, 16 2 C 19 2, 22 4, 22 8 C 22 15, 12 22, 12 22 Z" fill="#B8CFB4" stroke="#5A7856" stroke-width="1.3" stroke-linejoin="round"></path>
    
    <circle cx="2" cy="4" r="1" fill="#FFE8A3"></circle>
    <circle cx="22" cy="18" r="1" fill="#FFE8A3"></circle>
  </g>
  <path d="M 40 4 C 60 2, 75 18, 73 38 C 81 48, 73 65, 56 66 C 51 76, 32 76, 23 68 C 5 71, -2 52, 8 40 C 0 22, 20 4, 40 4 Z" fill="#60A5FA" stroke="#1E3A8A" stroke-width="2.5" stroke-linejoin="round"></path>
  <path d="M 22 34 Q 28 28, 34 34" fill="none" stroke="#1E3A8A" stroke-width="3.2" stroke-linecap="round"></path>
  <path d="M 46 34 Q 52 28, 58 34" fill="none" stroke="#1E3A8A" stroke-width="3.2" stroke-linecap="round"></path>
  <circle cx="20" cy="46" r="3" fill="#B8CFB4" opacity="0.9"></circle>
  <circle cx="60" cy="46" r="3" fill="#B8CFB4" opacity="0.9"></circle>
</svg>